<svg width="32" height="33" viewBox="0 0 32 33" fill="none" xmlns="http://www.w3.org/2000/svg">
<g id="ci:chat">
<path id="Vector" d="M7.46667 26.6113L9.49867 24.986L9.512 24.9753C9.936 24.6353 10.1507 24.4647 10.3893 24.3433C10.6036 24.234 10.8293 24.1549 11.0667 24.106C11.332 24.0513 11.608 24.0513 12.1627 24.0513H23.7373C25.228 24.0513 25.9747 24.0513 26.544 23.7607C27.0457 23.505 27.4537 23.0971 27.7093 22.5953C28 22.0247 28 21.278 28 19.79V9.64732C28 8.15665 28 7.40999 27.7093 6.84065C27.4533 6.33871 27.0449 5.93075 26.5427 5.67532C25.9733 5.38465 25.2267 5.38465 23.7333 5.38465H8.26667C6.77333 5.38465 6.02667 5.38465 5.456 5.67532C4.95426 5.93098 4.54633 6.33891 4.29067 6.84065C4 7.41132 4 8.15799 4 9.65132V24.946C4 26.3673 4 27.078 4.29067 27.442C4.41566 27.5989 4.57445 27.7256 4.75521 27.8127C4.93597 27.8997 5.13404 27.9448 5.33467 27.9447C5.80133 27.9447 6.356 27.4993 7.46667 26.6113Z" stroke="#0326D8" stroke-width="3" stroke-linecap="round" stroke-linejoin="round"/>
</g>
</svg>
