<svg width="32" height="33" viewBox="0 0 32 33" fill="none" xmlns="http://www.w3.org/2000/svg">
<g id="pajamas:notifications">
<path id="Vector" fill-rule="evenodd" clip-rule="evenodd" d="M16.0001 2.05132C15.4697 2.05132 14.961 2.26204 14.5859 2.63711C14.2108 3.01218 14.0001 3.52089 14.0001 4.05132V4.25132C11.7414 4.71238 9.7113 5.93969 8.25348 7.72552C6.79566 9.51135 5.99962 11.746 6.00009 14.0513V22.0513L3.59009 24.7073C2.42409 25.9933 3.33609 28.0513 5.07009 28.0513H12.5361C12.8872 28.6594 13.3921 29.1643 14.0002 29.5153C14.6082 29.8663 15.298 30.0511 16.0001 30.0511C16.7022 30.0511 17.392 29.8663 18 29.5153C18.6081 29.1643 19.113 28.6594 19.4641 28.0513H26.9301C28.6641 28.0513 29.5761 25.9913 28.4101 24.7073L26.0001 22.0513V14.0513C26.0006 11.746 25.2045 9.51135 23.7467 7.72552C22.2889 5.93969 20.2588 4.71238 18.0001 4.25132V4.05132C18.0001 3.52089 17.7894 3.01218 17.4143 2.63711C17.0392 2.26204 16.5305 2.05132 16.0001 2.05132ZM9.00009 23.2113L8.22009 24.0673L7.32809 25.0513H24.6721L23.7781 24.0673L23.0001 23.2093V14.0513C23.0001 13.1321 22.819 12.2218 22.4673 11.3725C22.1155 10.5233 21.5998 9.75159 20.9498 9.10158C20.2998 8.45157 19.5282 7.93595 18.6789 7.58417C17.8296 7.23238 16.9193 7.05132 16.0001 7.05132C15.0808 7.05132 14.1706 7.23238 13.3213 7.58417C12.472 7.93595 11.7004 8.45157 11.0503 9.10158C10.4003 9.75159 9.88472 10.5233 9.53294 11.3725C9.18115 12.2218 9.00009 13.1321 9.00009 14.0513V23.2113Z" fill="#0326D8"/>
</g>
</svg>
